HIERARCHY
ROOT Hips
{
    OFFSET 0.000000 0.000000 0.000000
    CHANNELS 6 Xposition Yposition Zposition Zrotation Xrotation Yrotation
    JOINT Spine
    {
        OFFSET 0.000002 7.819691 0.000005
        CHANNELS 3 Zrotation Xrotation Yrotation
        JOINT Spine1
        {
            OFFSET 0.000003 23.511621 0.000009
            CHANNELS 3 Zrotation Xrotation Yrotation
            JOINT Neck
            {
                OFFSET 0.000001 27.483723 0.000003
                CHANNELS 3 Zrotation Xrotation Yrotation
                JOINT Head
                {
                    OFFSET -0.000000 17.184973 2.035166
                    CHANNELS 3 Zrotation Xrotation Yrotation
                    End Site
                    {
                        OFFSET 0.000000 20.351660 0.000000
                    }
                }
            }
            JOINT LeftShoulder
            {
                OFFSET 4.036571 20.304848 -0.371904
                CHANNELS 3 Zrotation Xrotation Yrotation
                JOINT LeftArm
                {
                    OFFSET 12.502551 0.000006 0.000006
                    CHANNELS 3 Zrotation Xrotation Yrotation
                    JOINT LeftForeArm
                    {
                        OFFSET 31.806910 -0.000003 -0.000003
                        CHANNELS 3 Zrotation Xrotation Yrotation
                        JOINT LeftHand
                        {
                            OFFSET 24.843222 -0.000004 0.000004
                            CHANNELS 3 Zrotation Xrotation Yrotation
                            JOINT LeftHandThumb1
                            {
                                OFFSET 2.126749 -2.416760 3.383461
                                CHANNELS 3 Zrotation Xrotation Yrotation
                                JOINT LeftHandThumb2
                                {
                                    OFFSET 3.212125 -0.000003 0.000001
                                    CHANNELS 3 Zrotation Xrotation Yrotation
                                    JOINT LeftHandThumb3
                                    {
                                        OFFSET 2.745444 0.000007 -0.000000
                                        CHANNELS 3 Zrotation Xrotation Yrotation
                                        End Site
                                        {
                                            OFFSET 2.793713 0.000000 0.000000
                                        }
                                    }
                                }
                            }
                            JOINT LeftHandIndex1
                            {
                                OFFSET 8.700336 0.000001 3.383464
                                CHANNELS 3 Zrotation Xrotation Yrotation
                                JOINT LeftHandIndex2
                                {
                                    OFFSET 4.833509 -0.000005 -0.000003
                                    CHANNELS 3 Zrotation Xrotation Yrotation
                                    JOINT LeftHandIndex3
                                    {
                                        OFFSET 2.416764 0.000003 0.000003
                                        CHANNELS 3 Zrotation Xrotation Yrotation
                                        End Site
                                        {
                                            OFFSET 2.459254 0.000000 0.000000
                                        }
                                    }
                                }
                            }
                            JOINT LeftHandMiddle1
                            {
                                OFFSET 8.700330 -0.000003 1.121373
                                CHANNELS 3 Zrotation Xrotation Yrotation
                                JOINT LeftHandMiddle2
                                {
                                    OFFSET 5.316864 -0.000006 -0.000005
                                    CHANNELS 3 Zrotation Xrotation Yrotation
                                    JOINT LeftHandMiddle3
                                    {
                                        OFFSET 2.900115 0.000005 0.000005
                                        CHANNELS 3 Zrotation Xrotation Yrotation
                                        End Site
                                        {
                                            OFFSET 2.951103 0.000000 0.000000
                                        }
                                    }
                                }
                            }
                            JOINT LeftHandRing1
                            {
                                OFFSET 8.216985 0.000001 -1.121373
                                CHANNELS 3 Zrotation Xrotation Yrotation
                                JOINT LeftHandRing2
                                {
                                    OFFSET 4.833509 -0.000004 -0.000004
                                    CHANNELS 3 Zrotation Xrotation Yrotation
                                    JOINT LeftHandRing3
                                    {
                                        OFFSET 2.416764 0.000003 0.000003
                                        CHANNELS 3 Zrotation Xrotation Yrotation
                                        End Site
                                        {
                                            OFFSET 2.459254 0.000000 0.000000
                                        }
                                    }
                                }
                            }
                            JOINT LeftHandPinky1
                            {
                                OFFSET 7.733624 -0.000001 -3.383464
                                CHANNELS 3 Zrotation Xrotation Yrotation
                                JOINT LeftHandPinky2
                                {
                                    OFFSET 3.866822 0.000004 0.000006
                                    CHANNELS 3 Zrotation Xrotation Yrotation
                                    JOINT LeftHandPinky3
                                    {
                                        OFFSET 1.933413 0.000000 0.000002
                                        CHANNELS 3 Zrotation Xrotation Yrotation
                                        End Site
                                        {
                                            OFFSET 1.967405 0.000000 0.000000
                                        }
                                    }
                                }
                            }
                        }
                    }
                }
            }
            JOINT RightShoulder
            {
                OFFSET -4.036572 20.304850 -0.371920
                CHANNELS 3 Zrotation Xrotation Yrotation
                JOINT RightArm
                {
                    OFFSET -12.502548 0.000000 0.000003
                    CHANNELS 3 Zrotation Xrotation Yrotation
                    JOINT RightForeArm
                    {
                        OFFSET -31.806913 -0.000003 0.000004
                        CHANNELS 3 Zrotation Xrotation Yrotation
                        JOINT RightHand
                        {
                            OFFSET -24.843220 -0.000009 -0.000003
                            CHANNELS 3 Zrotation Xrotation Yrotation
                            JOINT RightHandThumb1
                            {
                                OFFSET -2.126747 -2.416754 3.383466
                                CHANNELS 3 Zrotation Xrotation Yrotation
                                JOINT RightHandThumb2
                                {
                                    OFFSET -3.212137 0.000001 -0.000000
                                    CHANNELS 3 Zrotation Xrotation Yrotation
                                    JOINT RightHandThumb3
                                    {
                                        OFFSET -2.745433 -0.000008 -0.000001
                                        CHANNELS 3 Zrotation Xrotation Yrotation
                                        End Site
                                        {
                                            OFFSET -2.793713 0.000000 0.000000
                                        }
                                    }
                                }
                            }
                            JOINT RightHandIndex1
                            {
                                OFFSET -8.700331 -0.000004 3.383456
                                CHANNELS 3 Zrotation Xrotation Yrotation
                                JOINT RightHandIndex2
                                {
                                    OFFSET -4.833518 0.000003 0.000005
                                    CHANNELS 3 Zrotation Xrotation Yrotation
                                    JOINT RightHandIndex3
                                    {
                                        OFFSET -2.416756 -0.000007 -0.000006
                                        CHANNELS 3 Zrotation Xrotation Yrotation
                                        End Site
                                        {
                                            OFFSET -2.459254 0.000000 0.000000
                                        }
                                    }
                                }
                            }
                            JOINT RightHandMiddle1
                            {
                                OFFSET -8.700328 -0.000003 1.121372
                                CHANNELS 3 Zrotation Xrotation Yrotation
                                JOINT RightHandMiddle2
                                {
                                    OFFSET -5.316870 -0.000003 -0.000004
                                    CHANNELS 3 Zrotation Xrotation Yrotation
                                    JOINT RightHandMiddle3
                                    {
                                        OFFSET -2.900113 0.000002 0.000002
                                        CHANNELS 3 Zrotation Xrotation Yrotation
                                        End Site
                                        {
                                            OFFSET -2.951103 0.000000 0.000000
                                        }
                                    }
                                }
                            }
                            JOINT RightHandRing1
                            {
                                OFFSET -8.216978 -0.000004 -1.121382
                                CHANNELS 3 Zrotation Xrotation Yrotation
                                JOINT RightHandRing2
                                {
                                    OFFSET -4.833519 0.000003 0.000005
                                    CHANNELS 3 Zrotation Xrotation Yrotation
                                    JOINT RightHandRing3
                                    {
                                        OFFSET -2.416756 -0.000005 -0.000007
                                        CHANNELS 3 Zrotation Xrotation Yrotation
                                        End Site
                                        {
                                            OFFSET -2.459254 0.000000 0.000000
                                        }
                                    }
                                }
                            }
                            JOINT RightHandPinky1
                            {
                                OFFSET -7.733630 0.000001 -3.383458
                                CHANNELS 3 Zrotation Xrotation Yrotation
                                JOINT RightHandPinky2
                                {
                                    OFFSET -3.866816 0.000002 0.000004
                                    CHANNELS 3 Zrotation Xrotation Yrotation
                                    JOINT RightHandPinky3
                                    {
                                        OFFSET -1.933405 0.000000 0.000003
                                        CHANNELS 3 Zrotation Xrotation Yrotation
                                        End Site
                                        {
                                            OFFSET -1.967405 0.000000 0.000000
                                        }
                                    }
                                }
                            }
                        }
                    }
                }
            }
        }
    }
    JOINT LeftUpLeg
    {
        OFFSET 10.175824 -0.000000 -0.000005
        CHANNELS 3 Zrotation Xrotation Yrotation
        JOINT LeftLeg
        {
            OFFSET 0.000002 -42.882950 0.000005
            CHANNELS 3 Zrotation Xrotation Yrotation
            JOINT LeftFoot
            {
                OFFSET 0.000001 -39.006771 0.000000
                CHANNELS 3 Zrotation Xrotation Yrotation
                JOINT LeftToeBase
                {
                    OFFSET 0.000001 -6.614286 15.263745
                    CHANNELS 3 Zrotation Xrotation Yrotation
                    End Site
                    {
                        OFFSET 0.000000 0.000000 4.070332
                    }
                }
            }
        }
    }
    JOINT RightUpLeg
    {
        OFFSET -10.175824 0.000000 0.000005
        CHANNELS 3 Zrotation Xrotation Yrotation
        JOINT RightLeg
        {
            OFFSET 0.000000 -42.882942 0.000003
            CHANNELS 3 Zrotation Xrotation Yrotation
            JOINT RightFoot
            {
                OFFSET 0.000003 -39.006763 0.000010
                CHANNELS 3 Zrotation Xrotation Yrotation
                JOINT RightToeBase
                {
                    OFFSET 0.000005 -6.614286 15.263748
                    CHANNELS 3 Zrotation Xrotation Yrotation
                    End Site
                    {
                        OFFSET 0.000000 0.000000 4.070332
                    }
                }
            }
        }
    }
}
MOTION
Frames:    4
Frame Time:    0.002778
-10.448663    83.539940    217.441254    18.217480    -10.598290    -50.980053    1.265215    6.161273    7.523480    6.325801    6.125529    6.981564    -1.506679    0.679568    5.076829    -1.506684    0.679567    5.076834    -0.966929    -3.516823    0.832190    -50.559547    6.385589    -19.103148    -23.427692    15.971359    -135.729126    17.561316    4.912365    16.018898    47.448215    38.866421    -34.355030    -35.000008    0.000001    0.000003    -0.000000    0.000000    -0.000000    0.000002    9.999994    0.000001    -0.000000    0.000000    -0.000000    -0.000000    0.000000    -0.000000    -0.000000    0.000000    -0.000000    -0.000000    0.000000    -0.000000    -0.000000    0.000000    -0.000000    -0.000000    0.000000    -0.000000    -0.000000    0.000000    -0.000000    -0.000000    0.000000    -0.000000    -0.000000    -9.999994    -0.000001    -0.000000    0.000000    -0.000000    -0.000000    0.000000    -0.000000    -4.776095    -5.596896    6.433962    4.723600    -21.710070    31.137268    -0.859927    -21.070734    59.251091    11.695560    -0.248180    -0.686760    -47.448208    38.866428    34.355034    35.000000    -0.000000    -0.000002    -0.000000    0.000000    -0.000000    -0.000002    10.000000    0.000001    -0.000000    0.000000    -0.000000    -0.000000    0.000000    -0.000000    -0.000000    0.000000    -0.000000    -0.000000    0.000000    -0.000000    -0.000000    0.000000    -0.000000    -0.000000    0.000000    -0.000000    -0.000000    0.000000    -0.000000    -0.000000    0.000000    -0.000000    0.000006    -10.000000    0.000006    -0.000000    0.000000    -0.000000    -0.000000    0.000000    -0.000000    -12.086937    -8.796763    7.170762    -0.000011    49.492344    0.000016    5.254568    -37.521557    32.802750    -0.000002    -2.279697    0.000001    -36.474167    -55.437302    -5.041835    0.000007    55.836220    -0.000010    28.324104    -13.047135    24.885120    -0.000001    0.244284    0.000004    
-10.432087    83.629135    217.305161    18.346041    -10.535222    -50.510303    1.269781    6.150966    7.471428    6.348625    6.115021    6.928467    -1.461283    0.794859    5.140940    -1.461287    0.794856    5.140934    -0.825092    -3.479525    0.991742    -50.521378    5.945934    -18.916006    -23.505863    16.207157    -135.586349    17.471886    4.895826    16.060410    47.448208    38.866432    -34.355026    -35.000000    0.000001    -0.000000    -0.000000    0.000000    -0.000000    -0.000000    9.999993    0.000002    -0.000000    0.000000    -0.000000    -0.000000    0.000000    -0.000000    -0.000000    0.000000    -0.000000    -0.000000    0.000000    -0.000000    -0.000000    0.000000    -0.000000    -0.000000    0.000000    -0.000000    -0.000000    0.000000    -0.000000    -0.000000    0.000000    -0.000000    -0.000002    -10.000001    -0.000000    -0.000000    0.000000    -0.000000    -0.000000    0.000000    -0.000000    -4.805609    -5.610654    6.312393    4.846406    -22.447966    31.337614    -0.474111    -21.113710    60.859192    11.411735    -0.230717    -0.626392    -47.448204    38.866432    34.355034    35.000004    -0.000000    -0.000011    -0.000000    0.000000    -0.000000    0.000007    10.000010    -0.000001    -0.000000    0.000000    -0.000000    -0.000000    0.000000    -0.000000    -0.000000    0.000000    -0.000000    -0.000000    0.000000    -0.000000    -0.000000    0.000000    -0.000000    -0.000000    0.000000    -0.000000    -0.000000    0.000000    -0.000000    -0.000000    0.000000    -0.000000    0.000004    -9.999990    0.000001    -0.000000    0.000000    -0.000000    -0.000000    0.000000    -0.000000    -12.098636    -9.004007    7.053059    0.000008    49.576443    -0.000012    4.907449    -37.324924    32.360355    0.000001    -2.278326    -0.000003    -36.642982    -55.245979    -5.100873    0.000000    55.680088    0.000003    28.212526    -13.099012    24.636919    -0.000003    0.268432    0.000011    
-10.413837    83.718704    217.171021    18.473942    -10.470990    -50.033585    1.273801    6.138991    7.426931    6.368748    6.102888    6.883312    -1.414647    0.912089    5.191906    -1.414647    0.912090    5.191899    -0.683618    -3.453238    1.152202    -50.469376    5.525351    -18.733620    -23.518873    16.387070    -135.428650    17.406084    4.882301    16.086487    47.448204    38.866432    -34.355022    -35.000000    -0.000001    -0.000006    -0.000000    0.000000    -0.000000    -0.000002    9.999995    0.000002    -0.000000    0.000000    -0.000000    -0.000000    0.000000    -0.000000    -0.000000    0.000000    -0.000000    -0.000000    0.000000    -0.000000    -0.000000    0.000000    -0.000000    -0.000000    0.000000    -0.000000    -0.000000    0.000000    -0.000000    -0.000000    0.000000    -0.000000    0.000003    -9.999999    0.000000    -0.000000    0.000000    -0.000000    -0.000000    0.000000    -0.000000    -4.849323    -5.617695    6.189527    4.920930    -23.150604    31.514902    -0.208230    -21.087549    62.354408    11.136876    -0.235114    -0.678918    -47.448219    38.866444    34.355042    35.000004    -0.000002    -0.000011    -0.000000    0.000000    -0.000000    -0.000001    10.000000    -0.000003    -0.000000    0.000000    -0.000000    -0.000000    0.000000    -0.000000    -0.000000    0.000000    -0.000000    -0.000000    0.000000    -0.000000    -0.000000    0.000000    -0.000000    -0.000000    0.000000    -0.000000    -0.000000    0.000000    -0.000000    -0.000000    0.000000    -0.000000    0.000001    -9.999992    -0.000003    -0.000000    0.000000    -0.000000    -0.000000    0.000000    -0.000000    -12.135829    -9.202431    6.941007    0.000006    49.655495    -0.000009    4.576262    -37.170216    31.949800    -0.000001    -2.267414    0.000000    -36.817837    -55.046730    -5.171083    -0.000001    55.518959    -0.000002    28.083553    -13.164101    24.373041    0.000001    0.291691    0.000004    
-10.399044    83.797874    217.051651    18.605488    -10.407848    -49.547642    1.278239    6.115656    7.371974    6.390916    6.079440    6.828540    -1.363757    1.055339    5.239396    -1.363741    1.055342    5.239383    -0.536057    -3.419528    1.326474    -50.405724    5.120678    -18.547756    -23.471470    16.539785    -135.292877    17.363329    4.880126    16.122694    47.448219    38.866432    -34.355042    -34.999996    -0.000003    0.000000    -0.000000    0.000000    -0.000000    -0.000000    10.000000    0.000001    -0.000000    0.000000    -0.000000    -0.000000    0.000000    -0.000000    -0.000000    0.000000    -0.000000    -0.000000    0.000000    -0.000000    -0.000000    0.000000    -0.000000    -0.000000    0.000000    -0.000000    -0.000000    0.000000    -0.000000    -0.000000    0.000000    -0.000000    -0.000002    -9.999995    0.000001    -0.000000    0.000000    -0.000000    -0.000000    0.000000    -0.000000    -4.888785    -5.632231    6.053279    5.007850    -23.850445    31.684841    0.096211    -21.085693    63.864803    10.861724    -0.204379    -0.548767    -47.448208    38.866432    34.355026    34.999996    0.000000    0.000001    -0.000000    0.000000    -0.000000    0.000002    10.000005    -0.000005    -0.000000    0.000000    -0.000000    -0.000000    0.000000    -0.000000    -0.000000    0.000000    -0.000000    -0.000000    0.000000    -0.000000    -0.000000    0.000000    -0.000000    -0.000000    0.000000    -0.000000    -0.000000    0.000000    -0.000000    -0.000000    0.000000    -0.000000    0.000002    -9.999999    0.000002    -0.000000    0.000000    -0.000000    -0.000000    0.000000    -0.000000    -12.173081    -9.390586    6.856873    -0.000005    49.730907    0.000006    4.306902    -36.913902    31.542759    0.000002    -2.298698    -0.000002    -37.017982    -54.842747    -5.261413    -0.000000    55.381657    -0.000007    27.978127    -13.258882    24.150892    -0.000000    0.323337    0.000003    
